<?xml version="1.0" standalone="no"?>
<!DOCTYPE svg PUBLIC "-//W3C//DTD SVG 20010904//EN"
 "http://www.w3.org/TR/2001/REC-SVG-20010904/DTD/svg10.dtd">
<svg version="1.0" xmlns="http://www.w3.org/2000/svg"
 width="700.000000pt" height="700.000000pt" viewBox="0 0 700.000000 700.000000"
 preserveAspectRatio="xMidYMid meet">
<metadata>
Created by potrace 1.14, written by Peter Selinger 2001-2017
</metadata>
<g transform="translate(0.000000,700.000000) scale(0.100000,-0.100000)"
fill="#000000" stroke="none">
<path d="M5377 6454 c-1 -1 -34 -4 -72 -5 -295 -10 -616 -186 -810 -444 -88
-116 -178 -330 -201 -476 -16 -102 -10 -310 11 -397 5 -22 6 -22 33 -5 50 31
136 100 184 146 58 57 81 100 103 202 93 429 530 684 949 555 228 -71 404
-244 481 -474 91 -270 21 -561 -182 -763 -109 -108 -215 -165 -381 -204 -47
-11 -100 -29 -118 -40 -59 -36 -247 -249 -233 -264 19 -19 287 -34 364 -20 17
3 46 8 65 11 19 3 46 8 60 10 151 27 366 143 504 274 298 283 413 706 300
1100 -85 294 -302 551 -578 684 -72 34 -210 80 -276 91 -42 7 -200 22 -203 19z"/>
<path d="M1425 6435 c-314 -59 -594 -253 -752 -520 -98 -168 -143 -328 -148
-531 -6 -196 24 -339 104 -505 140 -287 399 -503 702 -584 162 -43 330 -50
494 -19 16 3 31 7 33 9 8 8 -93 132 -160 198 -72 70 -108 91 -174 100 -113 16
-258 84 -356 167 -218 182 -311 478 -239 760 7 25 16 54 21 65 5 11 16 37 24
58 24 60 86 147 151 213 136 136 304 208 501 213 366 10 684 -242 753 -596 7
-35 18 -78 26 -97 22 -52 148 -170 257 -240 l26 -17 12 55 c39 190 3 464 -86
651 -154 326 -432 542 -799 620 -68 15 -310 14 -390 0z"/>
<path d="M1529 5859 c-66 -15 -143 -50 -207 -96 -273 -195 -303 -593 -63 -834
76 -76 179 -131 288 -154 146 -31 190 -55 294 -162 131 -135 223 -265 295
-418 45 -96 100 -249 109 -307 3 -18 8 -44 10 -58 12 -57 14 -72 21 -137 11
-109 5 -312 -12 -394 -2 -13 -7 -40 -10 -59 -20 -131 -99 -365 -167 -495 -42
-81 -139 -227 -195 -295 -131 -158 -184 -197 -297 -216 -159 -27 -262 -79
-351 -177 -105 -114 -148 -230 -145 -389 1 -87 15 -148 53 -226 33 -70 43 -84
103 -147 126 -131 317 -190 506 -155 66 12 202 79 249 123 108 100 169 215
186 349 12 93 35 138 119 222 185 187 403 316 663 390 65 19 146 38 178 42 32
4 73 8 89 10 49 6 467 6 505 0 19 -3 58 -8 85 -11 219 -26 509 -147 689 -288
70 -55 88 -70 146 -129 81 -80 115 -145 136 -253 12 -62 19 -86 45 -143 115
-255 410 -383 677 -293 336 114 479 503 297 806 -20 33 -53 77 -73 98 -74 78
-197 145 -292 161 -139 23 -203 59 -318 180 -193 203 -344 485 -391 726 -6 30
-13 66 -16 80 -22 108 -23 423 -1 570 3 18 19 103 21 110 1 3 5 19 10 35 43
167 143 378 238 505 114 153 237 272 319 307 15 7 75 24 134 38 130 32 224 85
299 168 246 271 174 694 -149 863 -159 84 -345 85 -508 3 -33 -16 -73 -42 -90
-57 -114 -99 -164 -182 -202 -334 -13 -53 -36 -122 -51 -152 -60 -123 -287
-306 -510 -410 -69 -32 -244 -92 -295 -101 -19 -3 -53 -10 -75 -15 -97 -22
-494 -31 -650 -16 -241 24 -510 126 -706 265 -207 149 -303 270 -324 412 -32
212 -197 395 -408 451 -74 19 -187 22 -258 7z m2113 -1903 c272 -80 412 -401
288 -661 -142 -297 -535 -364 -765 -131 -230 233 -170 614 119 760 110 56 237
67 358 32z"/>
<path d="M5337 2745 c-1 -2 -32 -5 -68 -9 -79 -7 -129 -17 -129 -24 0 -13 87
-118 153 -186 75 -76 118 -102 180 -110 148 -18 317 -111 432 -238 227 -251
253 -628 62 -915 -101 -152 -297 -285 -457 -308 -24 -4 -48 -9 -52 -11 -11 -7
-168 -7 -218 0 -200 29 -400 158 -511 329 -41 62 -94 184 -102 232 -13 72 -21
102 -38 136 -22 43 -103 123 -201 196 -83 63 -80 64 -96 -52 -18 -136 -3 -314
40 -460 20 -72 96 -237 110 -243 4 -2 8 -9 8 -15 0 -20 112 -156 183 -223 222
-206 510 -311 807 -293 107 7 145 12 215 30 215 55 436 197 577 371 104 127
198 324 222 463 3 17 10 52 15 78 9 50 7 281 -3 332 -53 256 -159 453 -331
618 -162 156 -401 269 -620 292 -57 7 -174 13 -178 10z"/>
<path d="M1408 2720 c-123 -26 -179 -46 -289 -101 -115 -59 -180 -106 -276
-201 -93 -91 -223 -279 -223 -323 0 -7 -4 -15 -8 -17 -9 -3 -55 -144 -73 -223
-18 -82 -20 -299 -3 -395 92 -524 541 -907 1070 -913 183 -2 366 42 524 126
202 108 386 301 480 502 29 63 66 166 74 206 23 115 28 158 29 254 0 128 -19
259 -36 248 -37 -22 -160 -119 -208 -165 -64 -60 -75 -78 -83 -134 -15 -101
-27 -137 -77 -239 -115 -235 -363 -396 -629 -408 -304 -14 -582 157 -709 436
-28 60 -38 93 -58 187 -12 56 -5 227 12 295 46 184 155 340 309 443 89 59 167
90 286 113 95 19 95 19 149 77 30 31 82 95 117 142 l64 85 -28 8 c-15 5 -94
10 -177 12 -118 3 -169 0 -237 -15z"/>
</g>
</svg>
