<svg height="496pt" viewBox="-24 0 496 496" width="496pt" xmlns="http://www.w3.org/2000/svg"><path d="m339.351562 191.152344c5.535157-12.914063 9.089844-26.351563 10.992188-40.097656l97.65625-16.277344v-29.777344c0-12.359375-2.921875-24.734375-8.449219-35.785156-11.40625-22.816406-33.238281-38.941406-58.398437-43.136719l-9.90625-1.644531-21.910156-16.433594c-6.878907-5.160156-15.398438-8-24-8h-35.289063l-6.207031 20.679688c-1.144532 3.816406-2.441406 7.566406-3.761719 11.320312h-112.15625c-1.320313-3.753906-2.617187-7.511719-3.761719-11.320312l-6.207031-20.679688h-35.289063c-8.601562 0-17.121093 2.839844-24 8l-21.902343 16.433594-9.914063 1.644531c-25.160156 4.195313-46.992187 20.320313-58.398437 43.136719-5.527344 11.050781-8.449219 23.425781-8.449219 35.785156v38.359375l97.726562 8.144531c1.921876 13.585938 5.449219 26.878906 10.921876 39.648438 7.527343 17.574218 11.351562 36.183594 11.351562 55.3125v57.535156c-8.824219 0-16 7.175781-16 16v16c0 8.625 6.863281 15.625 15.414062 15.945312-1.261718 11.261719-5.0625 22.101563-11.511718 31.773438-2.550782 3.839844-3.902344 8.304688-3.902344 12.90625 0 10.367188 6.671875 19.328125 16.59375 22.304688l13.316406 4c32.3125 9.695312 57.128906 34.832031 66.394532 67.261718l1.664062 5.808594h44.070312l1.65625-5.808594c9.265626-32.429687 34.089844-57.566406 66.394532-67.261718l13.316406-4c9.921875-2.976563 16.59375-11.9375 16.59375-22.304688 0-4.601562-1.351562-9.066406-4.03125-13.097656-6.34375-9.519532-10.128906-20.335938-11.382812-31.589844 8.550781-.3125 15.414062-7.3125 15.414062-15.9375v-16c0-8.824219-7.175781-16-16-16v-57.535156c0-19.128906 3.824219-37.738282 11.351562-55.3125zm33.824219-150.175782 5.335938.886719c20.128906 3.351563 37.601562 16.257813 46.726562 34.511719 2.160157 4.320312 3.808594 8.90625 4.945313 13.609375l-63.917969 14.207031 3.46875 15.617188 62.265625-13.839844v15.246094l-80.257812 13.378906c.058593-1.691406.257812-3.363281.257812-5.058594v-6.625c0-16.894531 3.007812-33.484375 8.945312-49.300781zm-74.007812-15.695312 2.785156-9.28125h23.375c5.160156 0 10.28125 1.703125 14.398437 4.800781l18.671876 14.007813-12.445313 33.183594c-6.601563 17.617187-9.953125 36.097656-9.953125 54.917968v6.625c0 10.28125-1.191406 20.402344-3.382812 30.304688-25.777344-1.679688-47.121094-22.265625-49.296876-48.304688l-3.25-39.007812c7.785157-15.113282 14.203126-30.925782 19.097657-47.246094zm-51.167969 69.398438v-46.679688h25.910156c-7 16.40625-15.734375 32.03125-25.910156 46.679688zm-24 29.824218c-2.753906-2.9375-5.382812-5.976562-8-9.03125v-67.472656h16v67.472656c-2.617188 3.054688-5.246094 6.09375-8 9.03125zm-24-76.503906v46.679688c-10.175781-14.648438-18.910156-30.273438-25.910156-46.679688zm-184 80.640625v-15.703125l63.121094 7.015625 1.765625-15.898437-64.328125-7.152344c.914062-7.125 2.992187-14.109375 6.203125-20.527344 9.125-18.253906 26.597656-31.160156 46.726562-34.511719l5.335938-.886719 12.238281 32.640626c5.929688 15.808593 8.9375 32.398437 8.9375 49.292968v6.625c0 1.945313.214844 3.855469.289062 5.792969zm86.039062-60.648437-12.445312-33.183594 18.664062-14c4.132813-3.105469 9.246094-4.808594 14.40625-4.808594h23.375l2.785157 9.28125c4.894531 16.320312 11.3125 32.144531 19.097656 47.246094l-3.25 39.007812c-2.167969 26.039063-23.519531 46.625-49.296875 48.304688-2.183594-9.902344-3.375-20.023438-3.375-30.304688v-6.625c0-18.820312-3.351562-37.300781-9.960938-54.917968zm17.960938 252.007812h56v16h-56zm202.808594 83.601562-13.320313 4c-35.601562 10.6875-63.382812 37.511719-75.351562 72.398438h-20.257813c-11.96875-34.878906-39.75-61.710938-75.351562-72.398438l-13.328125-4c-3.109375-.929687-5.199219-3.738281-5.199219-6.976562 0-1.441406.425781-2.832031 1.34375-4.21875 8.105469-12.148438 12.929688-25.980469 14.25-40.40625h42.628906c2.777344 4.761719 7.882813 8 13.777344 8h64c5.894531 0 11-3.238281 13.777344-8h42.628906c1.320312 14.425781 6.167969 28.289062 14.363281 40.574219.804688 1.21875 1.230469 2.609375 1.230469 4.050781 0 3.238281-2.089844 6.046875-5.191406 6.976562zm-130.808594-59.601562v-32h64l.007812 32zm80-24h56v16h-56zm52.648438-135.152344c-8.390626 19.578125-12.648438 40.3125-12.648438 61.617188v57.535156h-42.222656c-2.777344-4.761719-7.882813-8-13.777344-8h-64c-5.894531 0-11 3.238281-13.777344 8h-42.222656v-57.535156c0-21.3125-4.257812-42.039063-12.648438-61.617188-1.320312-3.070312-2.375-6.222656-3.464843-9.359375 32-3.746093 58.007812-29.878906 60.738281-62.632812l1.359375-16.335938c10.527344 16.222657 22.648437 31.425781 36.359375 45.136719l5.65625 5.65625 5.65625-5.65625c13.710938-13.710938 25.832031-28.914062 36.359375-45.136719l1.359375 16.335938c2.730469 32.753906 28.738281 58.886719 60.738281 62.632812-1.089843 3.136719-2.144531 6.28125-3.464843 9.359375zm0 0"/><path d="m232 184v-8h-16v8c0 13.230469-10.769531 24-24 24h-24v16h24c13.128906 0 24.703125-6.449219 32-16.246094 7.296875 9.796875 18.871094 16.246094 32 16.246094h24v-16h-24c-13.230469 0-24-10.769531-24-24zm0 0"/><path d="m232 240v-8h-16v8c0 13.230469-10.769531 24-24 24h-24v16h24c13.128906 0 24.703125-6.449219 32-16.246094 7.296875 9.796875 18.871094 16.246094 32 16.246094h24v-16h-24c-13.230469 0-24-10.769531-24-24zm0 0"/></svg>