<svg height="464pt" viewBox="-16 0 464 464.00121" width="464pt" xmlns="http://www.w3.org/2000/svg"><path d="m75.097656 176c0 1.984375.320313 3.929688.808594 5.832031l39.621094-23.136719c-4.390625-4.183593-10.230469-6.695312-16.429688-6.695312-13.242187 0-24 10.769531-24 24zm0 0"/><path d="m91.535156 136.769531-18.558594-91.167969-60.792968-27.640624 72.847656 120.726562c2.097656-.800781 4.25-1.488281 6.503906-1.917969zm0 0"/><path d="m71.472656 147.199219-71.472656-118.445313v63.492188l69.214844 57.433594c.746094-.839844 1.449218-1.703126 2.257812-2.480469zm0 0"/><path d="m341.617188 46.046875-20.785157-11.550781-9.449219 16.457031 20.816407 11.566406zm0 0"/><path d="m358.550781 16.40625c.945313-1.652344 1.449219-3.535156 1.449219-5.445312 0-6.050782-4.910156-10.960938-10.960938-10.960938h-2.0625c-3.910156 0-7.550781 2.113281-9.503906 5.503906l-8.671875 15.113282 20.761719 11.535156zm0 0"/><path d="m139.90625 162.984375-73.035156 42.648437 8.792968 15.382813 73.03125-42.648437zm0 0"/><path d="m267.464844 157.847656c4.863281-8.535156 13.992187-13.839844 23.824218-13.839844h1.304688c15.117188 0 27.414062 12.296876 27.414062 27.417969 0 4.222657-1 8.46875-2.886718 12.253907l-24.167969 48.328124h5.449219c31.582031 0 60.820312-14.296874 80.207031-39.222656 13.792969-17.761718 21.390625-39.914062 21.390625-62.394531v-26.519531c-17.175781-.128906-34.3125-4.4375-49.382812-12.824219l-47.199219-26.214844-89.671875 156.207031 13.152344 8zm0 0"/><path d="m94.351562 429.039062 14 8.082032 7.921876-13.898438-13.960938-8.054687zm0 0"/><path d="m114.007812 217.152344 42.25 71.902344 9.3125-16.214844-37.53125-63.878906zm0 0"/><path d="m416 102.671875v27.71875c0 26.015625-8.800781 51.664063-24.777344 72.210937-22.445312 28.847657-56.277344 45.398438-92.828125 45.398438h-13.449219l-8 16h16.449219c52.839844 0 100.34375-29.359375 123.972657-76.625 9.570312-19.136719 14.632812-40.566406 14.632812-61.984375v-26.292969c-5.222656 1.671875-10.589844 2.773438-16 3.574219zm0 0"/><path d="m249.3125 415.382812-14.070312 8.121094 8.101562 13.792969 14.074219-8.121094zm0 0"/><path d="m265.519531 442.976562-14.070312 8.121094 5.222656 8.886719c2.273437 3.863281 7.335937 5.160156 11.28125 2.917969 1.886719-1.070313 3.230469-2.789063 3.785156-4.839844.535157-2 .246094-4.085938-.808593-5.878906zm0 0"/><path d="m193.394531 320.191406-9.28125 16.289063 43.023438 73.230469 14.070312-8.125zm0 0"/><path d="m81.113281 452.113281c-1.097656 1.863281-1.382812 3.949219-.839843 5.949219.542968 2.058594 1.886718 3.777344 3.78125 4.839844 3.945312 2.234375 9.011718.9375 11.28125-2.917969l5.105468-8.960937-14.046875-8.101563zm0 0"/><path d="m205.777344 234.921875-95.496094 166.367187 13.910156 8.03125 94.785156-166.375zm0 0"/></svg>